<svg width="1672" height="287" viewBox="0 0 1672 287" fill="none" xmlns="http://www.w3.org/2000/svg">
<path fill-rule="evenodd" clip-rule="evenodd" d="M148.662 0.902771C152.853 0.368133 160.4 0.894609 166.827 0.902771C171.966 0.902771 181.797 -0.0603929 183.977 2.52709C185.205 3.99224 184.854 8.88969 184.993 11.9179C185.491 22.3821 184.728 33.4626 184.789 43.1473C184.83 49.0936 185.144 56.7867 184.993 64.3818C184.858 71.2137 184.115 78.6007 185.201 84.1756C187.233 94.6317 200.081 105.084 213.569 98.8761C219.377 96.207 225.858 89.8852 225.613 80.5026C225.405 72.4422 220.74 66.8632 216.018 63.7696C211.753 60.9618 204.872 60.3904 197.236 60.5006C194.143 60.5496 191.629 60.8271 190.094 58.46C189.054 56.8479 189.38 52.9299 189.278 49.8813C189.054 43.4493 189.482 37.2173 189.486 30.4956C189.486 26.9164 189.074 22.9331 190.915 21.3047C192.731 19.6926 195.082 20.3007 197.853 20.2844C200.346 20.2762 203.109 19.7579 205.607 19.8763C225.038 20.8231 237.6 28.1897 248.268 38.862C257.597 48.1876 266.499 63.6349 265.209 83.1472C263.993 101.57 257.381 115.246 245.615 125.204C234.592 134.521 221.842 142.716 199.889 141.121C192.629 140.594 185.193 137.852 179.067 134.999C166.803 129.285 158.041 120.278 151.719 108.663C148.911 103.504 145.679 95.8601 144.985 88.665C144.299 81.5882 144.981 74.1726 144.985 67.0223C144.985 45.4532 144.675 25.0472 145.593 3.34333C146.026 2.07408 147.078 1.42108 148.246 0.894609C148.389 0.902771 148.527 0.902771 148.662 0.902771Z" fill="#8DDB90"/>
<path fill-rule="evenodd" clip-rule="evenodd" d="M77.0171 20.2889C96.5824 18.8523 112.071 27.8065 122.127 37.234C127.289 42.0744 132.211 48.743 134.987 55.3995C137.909 62.3987 140.863 70.5938 140.904 80.4989C140.97 96.2319 134.697 108.459 127.636 117.65C119.906 127.718 110.385 134.628 98.0394 138.468C94.8805 139.456 91.6727 140.35 87.6282 140.717C83.9796 141.035 79.7842 140.717 75.3805 140.717C57.6273 140.709 44.9511 140.876 26.3898 140.509C22.6922 140.44 19.4599 140.301 14.3502 140.301C10.5465 140.301 3.81664 140.795 2.10254 139.28C-0.713493 136.799 0.470056 125.441 0.470056 120.095C0.470056 114.54 -1.32567 104.096 2.10254 101.521C3.76359 100.268 8.18353 100.709 11.6974 100.709C15.5623 100.709 17.9131 100.35 21.0883 100.293C36.2622 100.06 47.0856 100.501 61.7085 100.501C69.2261 100.501 76.6008 101.089 82.3267 100.501C88.22 99.8887 93.4888 96.1789 96.4069 92.1303C98.0149 89.8979 99.68 86.5595 100.08 82.9476C101.308 71.908 93.1419 63.1701 84.3592 61.1091C72.6665 58.3502 63.0961 66.7044 60.68 75.8014C59.9413 78.593 60.0719 82.2334 60.0719 85.6045C60.0719 88.7429 60.8474 92.8404 58.8476 94.7872C57.3457 96.2442 53.289 96.0156 49.4567 96.0156C45.6898 96.0156 43.2329 96.0156 39.0456 96.0156C32.9034 96.0156 22.5167 96.9625 20.2639 93.7669C19.0069 91.9875 19.6517 86.9186 19.6517 84.1679C19.6517 67.6023 23.3289 56.9626 30.675 46.6167C38.8497 35.0996 48.0283 27.835 62.5166 22.9335C67.2549 21.3378 71.7972 20.6684 77.0171 20.2889Z" fill="#8DDB90"/>
<path fill-rule="evenodd" clip-rule="evenodd" d="M226.638 192.972C227.532 190.095 231.842 190.866 236.025 190.932C239.4 190.989 242.987 190.932 246.028 190.932C252.329 190.932 262.161 189.728 264.601 192.564C265.985 194.176 265.626 199.262 265.626 202.567C265.626 227.789 255.851 242.828 242.355 253.799C234.653 260.063 222.781 266.059 210.305 266.663C190.201 267.634 175.235 260.5 164.787 250.942C152.487 239.686 141.806 219.414 146.214 195.217C148.503 182.655 154.172 172.158 161.522 164.8C171.66 154.662 183.802 146.585 203.775 145.206C215.749 144.386 229.887 145.133 242.559 145.414C252.166 145.622 262.051 145.524 272.156 145.414C276.343 145.365 280.232 144.586 282.159 146.634C284.656 149.295 283.497 160.87 283.383 165.62C283.31 168.722 283.314 171.844 283.383 175.415C283.436 178.06 283.701 182.81 282.775 184.398C280.759 187.826 271.205 186.438 264.401 186.438C249.342 186.438 237.314 186.23 222.969 186.23C214.558 186.23 202.845 185.067 196.841 187.863C190.03 191.034 183.116 199.739 186.026 210.93C188.177 219.21 196.107 225.806 205.62 226.034C215.611 226.275 223.667 218.876 225.422 210.513C226.03 207.628 225.72 204.441 225.834 201.331C225.912 198.841 225.169 195.874 226.638 192.972Z" fill="#8DDB90"/>
<path fill-rule="evenodd" clip-rule="evenodd" d="M139.272 284.012C137.868 286.452 134.097 285.82 130.905 285.852C123.877 285.918 118.502 286.052 110.903 286.052C106.851 286.052 103.133 286.346 101.717 284.42C99.3249 281.167 100.941 269.752 100.696 264.618C100.035 250.619 100.623 237.38 100.284 223.389C100.133 217.084 101.149 209.089 100.08 202.975C98.1332 191.834 84.1837 181.031 70.279 188.483C63.0389 192.356 57.6314 204.559 62.5206 215.019C65.0755 220.48 70.2382 224.863 75.9968 226.042C81.2452 227.12 92.1338 224.83 94.9784 228.283C96.5048 230.14 95.9824 233.727 95.9987 236.861C96.0314 243.351 96.4069 249.305 96.4069 256.047C96.4069 259.243 96.5905 262.63 95.1825 265.03C93.2807 268.332 84.8122 266.777 79.8739 266.662C74.3969 266.528 69.9525 266.401 65.9937 265.226C42.4411 258.284 25.2674 242.167 21.0883 216.443C17.8886 196.739 24.0471 179.227 33.336 167.861C42.9023 156.168 55.2275 148.324 73.548 145.614C73.8541 145.573 73.9154 145.43 74.1602 145.414C91.6931 143.986 104.867 149.728 114.576 156.637C124.763 163.89 132.003 173.68 136.823 186.034C141.794 198.763 140.496 216.753 140.496 233.588C140.496 248.917 140.288 263.585 140.288 278.698C140.296 280.449 140.819 282.665 139.272 284.012Z" fill="#8DDB90"/>
<path d="M1178.43 243.277C1161.04 243.277 1145.18 239.801 1130.84 232.848C1116.5 225.895 1105.1 215.466 1096.62 201.561C1088.15 187.655 1084.02 170.382 1084.24 149.741C1084.46 129.534 1088.69 112.261 1096.95 97.9208C1105.42 83.3634 1116.83 72.2824 1131.17 64.6778C1145.51 57.0732 1161.59 53.2709 1179.4 53.2709C1197.87 53.2709 1213.41 56.6386 1226.01 63.3741C1238.61 69.8924 1248.39 78.5834 1255.34 89.4471C1262.51 100.094 1267.07 111.609 1269.03 123.994H1222.1C1221.01 115.737 1217.86 109.654 1212.65 105.743C1207.65 101.832 1202 99.3331 1195.7 98.2467C1189.62 96.9431 1184.18 96.2912 1179.4 96.2912C1162.46 96.2912 1149.86 100.745 1141.6 109.654C1133.34 118.345 1129.21 130.512 1129.21 146.156C1129.21 163.32 1133.23 176.683 1141.27 186.243C1149.31 195.803 1161.91 200.583 1179.08 200.583C1184.08 200.583 1189.72 199.931 1196.03 198.628C1202.33 197.107 1207.98 194.173 1212.97 189.828C1218.19 185.482 1221.34 178.964 1222.42 170.273H1269.68C1267.51 183.092 1262.84 195.151 1255.67 206.449C1248.5 217.53 1238.5 226.439 1225.68 233.174C1213.08 239.91 1197.33 243.277 1178.43 243.277Z" fill="#0E423E"/>
<path d="M1346.08 243.277C1330.21 243.277 1316.96 240.344 1306.31 234.478C1295.67 228.394 1287.74 220.138 1282.52 209.709C1277.31 199.279 1274.7 187.438 1274.7 174.184C1274.7 160.713 1277.31 148.763 1282.52 138.334C1287.74 127.905 1295.67 119.757 1306.31 113.89C1316.96 107.807 1330.21 104.765 1346.08 104.765C1369.32 104.765 1386.92 111.175 1398.87 123.994C1411.04 136.596 1417.12 153.326 1417.12 174.184C1417.12 187.221 1414.52 198.953 1409.3 209.383C1404.3 219.812 1396.59 228.068 1386.16 234.152C1375.73 240.236 1362.37 243.277 1346.08 243.277ZM1346.08 205.472C1354.11 205.472 1360.09 203.842 1364 200.583C1367.91 197.324 1370.41 193.196 1371.5 188.198C1372.8 182.984 1373.45 177.769 1373.45 172.555C1373.45 167.123 1372.8 161.908 1371.5 156.911C1370.41 151.914 1367.91 147.785 1364 144.526C1360.09 141.05 1354.11 139.312 1346.08 139.312C1338.04 139.312 1331.95 141.05 1327.82 144.526C1323.91 147.785 1321.31 151.914 1320 156.911C1318.92 161.908 1318.37 167.123 1318.37 172.555C1318.37 177.769 1318.92 182.984 1320 188.198C1321.31 193.196 1323.91 197.324 1327.82 200.583C1331.95 203.842 1338.04 205.472 1346.08 205.472Z" fill="#0E423E"/>
<path d="M1428.63 240.018V105.091H1471.65L1474.58 144.526L1474.26 173.858V240.018H1428.63ZM1474.26 186.243L1473.28 155.933C1473.06 152.022 1473.61 147.242 1474.91 141.593C1476.43 135.727 1479.04 130.077 1482.73 124.646C1486.64 118.996 1492.07 114.325 1499.03 110.631C1505.98 106.938 1514.78 105.091 1525.43 105.091H1528.36V155.607H1525.1C1517.06 155.607 1509.78 155.933 1503.26 156.585C1496.96 157.237 1491.64 158.54 1487.29 160.496C1483.17 162.451 1479.91 165.493 1477.52 169.621C1475.34 173.75 1474.26 179.29 1474.26 186.243Z" fill="#0E423E"/>
<path d="M1605.93 243.277C1589.64 243.277 1576.49 240.018 1566.5 233.5C1556.5 226.982 1549.12 218.617 1544.34 208.405C1539.77 197.976 1537.27 187.112 1536.84 175.814C1536.41 161.039 1539.01 148.328 1544.66 137.682C1550.31 126.818 1558.24 118.562 1568.45 112.913C1578.88 107.046 1590.83 104.113 1604.3 104.113C1617.12 104.113 1628.53 106.829 1638.52 112.261C1648.74 117.475 1656.67 124.971 1662.32 134.749C1668.18 144.526 1671.12 156.259 1671.12 169.947C1671.12 169.947 1671.12 171.142 1671.12 173.532C1671.12 175.705 1671.12 177.335 1671.12 178.421H1579.86C1579.86 187.981 1582.14 194.934 1586.7 199.279C1591.48 203.625 1597.57 205.798 1604.96 205.798C1611.26 205.798 1616.25 204.385 1619.95 201.561C1623.86 198.519 1626.14 194.717 1626.79 190.154H1670.79C1670.14 199.714 1667.31 208.622 1662.32 216.879C1657.32 224.918 1650.15 231.327 1640.81 236.107C1631.46 240.887 1619.84 243.277 1605.93 243.277ZM1580.51 160.17H1625.49C1625.49 160.17 1625.38 159.192 1625.16 157.237C1625.16 155.281 1624.51 153 1623.21 150.393C1621.9 147.785 1619.73 145.504 1616.69 143.548C1613.65 141.593 1609.19 140.615 1603.33 140.615C1597.46 140.615 1592.9 141.593 1589.64 143.548C1586.38 145.504 1584.1 147.785 1582.79 150.393C1581.71 153 1581.06 155.281 1580.84 157.237C1580.62 159.192 1580.51 160.17 1580.51 160.17Z" fill="#0E423E"/>
<path d="M349.09 240.018V56.5301H428.287C432.632 56.5301 437.956 56.7473 444.257 57.1819C450.558 57.3992 457.076 58.2683 463.811 59.7892C470.547 61.0928 476.848 63.4828 482.714 66.9592C488.581 70.4356 493.361 75.2157 497.054 81.2994C500.748 87.3831 502.595 95.2049 502.595 104.765C502.595 111.718 501.183 118.127 498.358 123.994C495.533 129.86 490.427 134.749 483.04 138.66C475.87 142.354 465.332 144.635 451.427 145.504V146.808C467.288 147.242 479.564 149.415 488.255 153.326C496.946 157.237 503.029 162.343 506.506 168.644C509.982 174.727 511.72 181.789 511.72 189.828C511.72 199.823 509.765 208.079 505.854 214.597C501.943 220.898 496.728 225.787 490.21 229.263C483.909 232.74 476.956 235.238 469.352 236.759C461.964 238.28 454.577 239.258 447.19 239.693C440.02 239.91 433.719 240.018 428.287 240.018H349.09ZM394.066 203.842H424.05C431.003 203.842 437.521 203.625 443.605 203.19C449.906 202.539 455.012 200.8 458.923 197.976C462.834 194.934 464.789 189.937 464.789 182.984C464.789 176.031 462.834 171.142 458.923 168.318C455.229 165.493 450.232 163.864 443.931 163.429C437.847 162.777 431.22 162.451 424.05 162.451H394.066V203.842ZM393.74 128.557H422.42C427.852 128.557 433.284 128.339 438.716 127.905C444.148 127.253 448.711 125.732 452.404 123.342C456.098 120.735 457.945 116.389 457.945 110.306C457.945 104.439 456.207 100.311 452.73 97.9209C449.471 95.5308 445.126 94.1186 439.694 93.684C434.262 93.2495 428.504 93.0322 422.42 93.0322H393.74V128.557Z" fill="#0E423E"/>
<path d="M528.011 240.018V56.5301H572.335V240.018H528.011Z" fill="#0E423E"/>
<path d="M592.08 240.018V105.091H637.708V240.018H592.08ZM614.894 90.4249C605.769 90.4249 599.576 88.1435 596.317 83.5807C593.275 78.8007 591.755 73.3688 591.755 67.2852C591.755 61.4187 593.275 56.2042 596.317 51.6414C599.576 47.0786 605.769 44.7972 614.894 44.7972C624.02 44.7972 629.995 47.0786 632.819 51.6414C635.861 56.2042 637.382 61.4187 637.382 67.2852C637.382 73.3688 635.861 78.8007 632.819 83.5807C629.995 88.1435 624.02 90.4249 614.894 90.4249Z" fill="#0E423E"/>
<path d="M653.831 240.018V105.091H693.266L700.762 129.86H701.414C701.414 129.86 701.957 128.665 703.043 126.275C704.347 123.668 706.52 120.735 709.561 117.476C712.603 114.216 716.84 111.392 722.272 109.002C727.921 106.395 735.091 105.091 743.782 105.091C753.56 105.091 761.381 106.829 767.248 110.306C773.332 113.782 777.894 118.345 780.936 123.994C784.195 129.426 786.368 135.401 787.454 141.919C788.541 148.22 789.084 154.412 789.084 160.496C789.301 166.362 789.41 171.36 789.41 175.488V240.018H745.086V175.162C745.086 170.382 744.651 165.711 743.782 161.148C743.13 156.585 741.284 152.783 738.242 149.741C735.2 146.482 729.985 144.852 722.598 144.852C715.428 144.852 710.322 146.482 707.28 149.741C704.238 152.783 702.391 156.585 701.74 161.148C701.088 165.711 700.762 170.382 700.762 175.162V240.018H653.831Z" fill="#0E423E"/>
<path d="M848.181 240.018H802.553V56.5301H848.181V240.018ZM877.839 138.334L945.629 239.693H891.853L844.596 170.273L877.839 138.334ZM847.529 208.731V158.866L889.898 104.113H944.651L847.529 208.731Z" fill="#0E423E"/>
<path d="M1005.85 243.278C1004.33 243.278 1001.07 243.06 996.071 242.626C991.291 242.408 985.751 241.539 979.45 240.018C973.366 238.28 967.391 235.564 961.524 231.871C955.658 228.177 950.769 223.18 946.858 216.879C943.165 210.36 941.318 201.995 941.318 191.783H983.035C983.035 192.001 983.035 193.087 983.035 195.043C983.252 196.998 983.904 199.171 984.99 201.561C986.294 203.951 988.358 206.124 991.182 208.079C994.224 209.817 998.678 210.686 1004.54 210.686C1009.54 210.686 1013.13 210.035 1015.3 208.731C1017.69 207.427 1019.21 206.015 1019.86 204.494C1020.51 202.973 1020.84 201.778 1020.84 200.909C1020.84 197.65 1018.99 195.043 1015.3 193.087C1011.61 191.132 1006.83 189.393 1000.96 187.873C995.093 186.134 988.792 184.287 982.057 182.332C975.539 180.159 969.346 177.443 963.48 174.184C957.613 170.708 952.833 166.254 949.14 160.822C945.446 155.39 943.599 148.437 943.599 139.963C943.599 126.058 948.705 115.955 958.917 109.654C969.346 103.353 982.383 100.202 998.027 100.202C1007.8 100.202 1016.71 101.397 1024.75 103.787C1032.79 105.96 1039.74 109.328 1045.61 113.891C1051.48 118.236 1056.04 123.777 1059.3 130.512C1062.77 137.03 1064.62 144.635 1064.84 153.326H1023.77C1023.77 149.632 1023.12 146.59 1021.82 144.2C1020.51 141.593 1018.67 139.638 1016.28 138.334C1014.1 136.813 1011.61 135.727 1008.78 135.075C1006.17 134.423 1003.35 134.097 1000.31 134.097C994.007 134.097 989.879 135.183 987.923 137.356C985.968 139.312 984.99 141.376 984.99 143.549C984.99 147.459 986.837 150.61 990.531 153C994.442 155.173 999.33 157.128 1005.2 158.866C1011.28 160.605 1017.69 162.451 1024.43 164.407C1031.38 166.362 1037.79 168.97 1043.65 172.229C1049.74 175.271 1054.63 179.399 1058.32 184.613C1062.23 189.611 1064.19 196.129 1064.19 204.168C1064.19 212.642 1061.8 219.812 1057.02 225.678C1052.45 231.327 1045.83 235.673 1037.14 238.715C1028.44 241.757 1018.02 243.278 1005.85 243.278Z" fill="#0E423E"/>
</svg>
