<svg width="1672" height="286" viewBox="0 0 1672 286" fill="none" xmlns="http://www.w3.org/2000/svg">
<path fill-rule="evenodd" clip-rule="evenodd" d="M148.662 0.239441C152.853 -0.295197 160.4 0.231279 166.827 0.239441C171.966 0.239441 181.797 -0.723723 183.977 1.86376C185.205 3.32891 184.854 8.22636 184.993 11.2546C185.491 21.7188 184.728 32.7993 184.789 42.484C184.83 48.4303 185.144 56.1234 184.993 63.7185C184.858 70.5504 184.115 77.9374 185.201 83.5123C187.233 93.9683 200.081 104.42 213.569 98.2128C219.377 95.5437 225.858 89.2219 225.613 79.8392C225.405 71.7789 220.74 66.1998 216.018 63.1063C211.753 60.2984 204.872 59.7271 197.236 59.8372C194.143 59.8862 191.629 60.1637 190.094 57.7966C189.054 56.1846 189.38 52.2666 189.278 49.218C189.054 42.786 189.482 36.554 189.486 29.8322C189.486 26.253 189.074 22.2698 190.915 20.6414C192.731 19.0293 195.082 19.6374 197.853 19.6211C200.346 19.6129 203.109 19.0946 205.607 19.213C225.038 20.1598 237.6 27.5264 248.268 38.1987C257.597 47.5243 266.499 62.9716 265.209 82.4838C263.993 100.906 257.381 114.583 245.615 124.541C234.592 133.858 221.842 142.053 199.889 140.457C192.629 139.931 185.193 137.188 179.067 134.336C166.803 128.622 158.041 119.615 151.719 108C148.911 102.841 145.679 95.1968 144.985 88.0016C144.299 80.9248 144.981 73.5093 144.985 66.359C144.985 44.7899 144.675 24.3838 145.593 2.68C146.026 1.41075 147.078 0.757754 148.246 0.231279C148.389 0.239441 148.527 0.239441 148.662 0.239441Z" fill="#8DDB90"/>
<path fill-rule="evenodd" clip-rule="evenodd" d="M77.0171 19.6256C96.5824 18.189 112.071 27.1431 122.127 36.5707C127.289 41.411 132.211 48.0797 134.987 54.7361C137.909 61.7354 140.863 69.9305 140.904 79.8356C140.97 95.5686 134.697 107.796 127.636 116.987C119.906 127.055 110.385 133.965 98.0394 137.805C94.8805 138.793 91.6727 139.686 87.6282 140.054C83.9796 140.372 79.7842 140.054 75.3805 140.054C57.6273 140.046 44.9511 140.213 26.3898 139.846C22.6922 139.776 19.4599 139.637 14.3502 139.637C10.5465 139.637 3.81664 140.131 2.10254 138.617C-0.713493 136.136 0.470056 124.778 0.470056 119.431C0.470056 113.877 -1.32567 103.433 2.10254 100.858C3.76359 99.6049 8.18353 100.046 11.6974 100.046C15.5623 100.046 17.9131 99.6865 21.0883 99.6294C36.2622 99.3968 47.0856 99.8375 61.7085 99.8375C69.2261 99.8375 76.6008 100.425 82.3267 99.8375C88.22 99.2253 93.4888 95.5155 96.4069 91.467C98.0149 89.2346 99.68 85.8961 100.08 82.2843C101.308 71.2446 93.1419 62.5068 84.3592 60.4458C72.6665 57.6869 63.0961 66.0411 60.68 75.1381C59.9413 77.9296 60.0719 81.5701 60.0719 84.9411C60.0719 88.0796 60.8474 92.1771 58.8476 94.1238C57.3457 95.5808 53.289 95.3523 49.4567 95.3523C45.6898 95.3523 43.2329 95.3523 39.0456 95.3523C32.9034 95.3523 22.5167 96.2991 20.2639 93.1035C19.0069 91.3241 19.6517 86.2553 19.6517 83.5046C19.6517 66.939 23.3289 56.2993 30.675 45.9534C38.8497 34.4362 48.0283 27.1717 62.5166 22.2702C67.2549 20.6744 71.7972 20.0051 77.0171 19.6256Z" fill="#8DDB90"/>
<path fill-rule="evenodd" clip-rule="evenodd" d="M226.638 192.309C227.532 189.432 231.842 190.203 236.025 190.268C239.4 190.326 242.987 190.268 246.028 190.268C252.329 190.268 262.161 189.064 264.601 191.901C265.985 193.513 265.626 198.598 265.626 201.904C265.626 227.126 255.851 242.165 242.355 253.135C234.653 259.4 222.781 265.395 210.305 265.999C190.201 266.971 175.235 259.837 164.787 250.278C152.487 239.022 141.806 218.751 146.214 194.554C148.503 181.992 154.172 171.495 161.522 164.136C171.66 153.999 183.802 145.922 203.775 144.543C215.749 143.722 229.887 144.469 242.559 144.751C252.166 144.959 262.051 144.861 272.156 144.751C276.343 144.702 280.232 143.922 282.159 145.971C284.656 148.632 283.497 160.206 283.383 164.957C283.31 168.059 283.314 171.181 283.383 174.752C283.436 177.396 283.701 182.147 282.775 183.734C280.759 187.163 271.205 185.775 264.401 185.775C249.342 185.775 237.314 185.567 222.969 185.567C214.558 185.567 202.845 184.404 196.841 187.199C190.03 190.37 183.116 199.076 186.026 210.266C188.177 218.547 196.107 225.142 205.62 225.371C215.611 225.612 223.667 218.212 225.422 209.85C226.03 206.965 225.72 203.777 225.834 200.667C225.912 198.178 225.169 195.211 226.638 192.309Z" fill="#8DDB90"/>
<path fill-rule="evenodd" clip-rule="evenodd" d="M139.272 283.348C137.868 285.789 134.097 285.156 130.905 285.189C123.877 285.254 118.502 285.389 110.903 285.389C106.851 285.389 103.133 285.683 101.717 283.756C99.3249 280.504 100.941 269.089 100.696 263.954C100.035 249.956 100.623 236.716 100.284 222.726C100.133 216.421 101.149 208.426 100.08 202.312C98.1332 191.17 84.1837 180.367 70.279 187.82C63.0389 191.693 57.6314 203.895 62.5206 214.356C65.0755 219.816 70.2382 224.199 75.9968 225.379C81.2452 226.456 92.1338 224.167 94.9784 227.619C96.5048 229.476 95.9824 233.064 95.9987 236.198C96.0314 242.687 96.4069 248.642 96.4069 255.384C96.4069 258.579 96.5905 261.967 95.1825 264.367C93.2807 267.668 84.8122 266.113 79.8739 265.999C74.3969 265.864 69.9525 265.738 65.9937 264.563C42.4411 257.62 25.2674 241.504 21.0883 215.78C17.8886 196.076 24.0471 178.563 33.336 167.197C42.9023 155.505 55.2275 147.661 73.548 144.951C73.8541 144.91 73.9154 144.767 74.1602 144.751C91.6931 143.322 104.867 149.064 114.576 155.974C124.763 163.226 132.003 173.017 136.823 185.371C141.794 198.1 140.496 216.09 140.496 232.925C140.496 248.254 140.288 262.922 140.288 278.035C140.296 279.785 140.819 282.002 139.272 283.348Z" fill="#8DDB90"/>
<path d="M1178.43 242.614C1161.04 242.614 1145.18 239.138 1130.84 232.185C1116.5 225.232 1105.1 214.803 1096.62 200.897C1088.15 186.992 1084.02 169.719 1084.24 149.077C1084.46 128.871 1088.69 111.598 1096.95 97.2575C1105.42 82.7001 1116.83 71.6191 1131.17 64.0144C1145.51 56.4098 1161.59 52.6075 1179.4 52.6075C1197.87 52.6075 1213.41 55.9753 1226.01 62.7108C1238.61 69.229 1248.39 77.92 1255.34 88.7838C1262.51 99.4302 1267.07 110.946 1269.03 123.33H1222.1C1221.01 115.074 1217.86 108.99 1212.65 105.079C1207.65 101.168 1202 98.6697 1195.7 97.5834C1189.62 96.2797 1184.18 95.6279 1179.4 95.6279C1162.46 95.6279 1149.86 100.082 1141.6 108.99C1133.34 117.681 1129.21 129.849 1129.21 145.492C1129.21 162.657 1133.23 176.019 1141.27 185.58C1149.31 195.14 1161.91 199.92 1179.08 199.92C1184.08 199.92 1189.72 199.268 1196.03 197.964C1202.33 196.443 1207.98 193.51 1212.97 189.165C1218.19 184.819 1221.34 178.301 1222.42 169.61H1269.68C1267.51 182.429 1262.84 194.488 1255.67 205.786C1248.5 216.867 1238.5 225.775 1225.68 232.511C1213.08 239.246 1197.33 242.614 1178.43 242.614Z" fill="white"/>
<path d="M1346.08 242.614C1330.21 242.614 1316.96 239.681 1306.31 233.814C1295.67 227.731 1287.74 219.474 1282.52 209.045C1277.31 198.616 1274.7 186.775 1274.7 173.521C1274.7 160.05 1277.31 148.1 1282.52 137.671C1287.74 127.241 1295.67 119.094 1306.31 113.227C1316.96 107.143 1330.21 104.102 1346.08 104.102C1369.32 104.102 1386.92 110.511 1398.87 123.33C1411.04 135.932 1417.12 152.662 1417.12 173.521C1417.12 186.557 1414.52 198.29 1409.3 208.719C1404.3 219.148 1396.59 227.405 1386.16 233.489C1375.73 239.572 1362.37 242.614 1346.08 242.614ZM1346.08 204.808C1354.11 204.808 1360.09 203.179 1364 199.92C1367.91 196.661 1370.41 192.532 1371.5 187.535C1372.8 182.32 1373.45 177.106 1373.45 171.891C1373.45 166.459 1372.8 161.245 1371.5 156.247C1370.41 151.25 1367.91 147.122 1364 143.863C1360.09 140.386 1354.11 138.648 1346.08 138.648C1338.04 138.648 1331.95 140.386 1327.82 143.863C1323.91 147.122 1321.31 151.25 1320 156.247C1318.92 161.245 1318.37 166.459 1318.37 171.891C1318.37 177.106 1318.92 182.32 1320 187.535C1321.31 192.532 1323.91 196.661 1327.82 199.92C1331.95 203.179 1338.04 204.808 1346.08 204.808Z" fill="white"/>
<path d="M1428.63 239.355V104.428H1471.65L1474.58 143.863L1474.26 173.195V239.355H1428.63ZM1474.26 185.58L1473.28 155.27C1473.06 151.359 1473.61 146.579 1474.91 140.93C1476.43 135.063 1479.04 129.414 1482.73 123.982C1486.64 118.333 1492.07 113.662 1499.03 109.968C1505.98 106.274 1514.78 104.428 1525.43 104.428H1528.36V154.944H1525.1C1517.06 154.944 1509.78 155.27 1503.26 155.922C1496.96 156.573 1491.64 157.877 1487.29 159.833C1483.17 161.788 1479.91 164.83 1477.52 168.958C1475.34 173.086 1474.26 178.627 1474.26 185.58Z" fill="white"/>
<path d="M1605.93 242.614C1589.64 242.614 1576.49 239.355 1566.5 232.837C1556.5 226.319 1549.12 217.953 1544.34 207.742C1539.77 197.312 1537.27 186.449 1536.84 175.15C1536.41 160.376 1539.01 147.665 1544.66 137.019C1550.31 126.155 1558.24 117.899 1568.45 112.249C1578.88 106.383 1590.83 103.45 1604.3 103.45C1617.12 103.45 1628.53 106.166 1638.52 111.598C1648.74 116.812 1656.67 124.308 1662.32 134.085C1668.18 143.863 1671.12 155.596 1671.12 169.284C1671.12 169.284 1671.12 170.479 1671.12 172.869C1671.12 175.042 1671.12 176.671 1671.12 177.758H1579.86C1579.86 187.318 1582.14 194.271 1586.7 198.616C1591.48 202.962 1597.57 205.134 1604.96 205.134C1611.26 205.134 1616.25 203.722 1619.95 200.897C1623.86 197.856 1626.14 194.053 1626.79 189.49H1670.79C1670.14 199.051 1667.31 207.959 1662.32 216.215C1657.32 224.254 1650.15 230.664 1640.81 235.444C1631.46 240.224 1619.84 242.614 1605.93 242.614ZM1580.51 159.507H1625.49C1625.49 159.507 1625.38 158.529 1625.16 156.573C1625.16 154.618 1624.51 152.337 1623.21 149.729C1621.9 147.122 1619.73 144.841 1616.69 142.885C1613.65 140.93 1609.19 139.952 1603.33 139.952C1597.46 139.952 1592.9 140.93 1589.64 142.885C1586.38 144.841 1584.1 147.122 1582.79 149.729C1581.71 152.337 1581.06 154.618 1580.84 156.573C1580.62 158.529 1580.51 159.507 1580.51 159.507Z" fill="white"/>
<path d="M349.09 239.355V55.8667H428.287C432.632 55.8667 437.956 56.084 444.257 56.5186C450.558 56.7358 457.076 57.6049 463.811 59.1259C470.547 60.4295 476.848 62.8195 482.714 66.2959C488.581 69.7723 493.361 74.5523 497.054 80.636C500.748 86.7197 502.595 94.5416 502.595 104.102C502.595 111.054 501.183 117.464 498.358 123.33C495.533 129.197 490.427 134.086 483.04 137.997C475.87 141.69 465.332 143.972 451.427 144.841V146.144C467.288 146.579 479.564 148.752 488.255 152.663C496.946 156.573 503.029 161.679 506.506 167.98C509.982 174.064 511.72 181.126 511.72 189.165C511.72 199.159 509.765 207.416 505.854 213.934C501.943 220.235 496.728 225.124 490.21 228.6C483.909 232.076 476.956 234.575 469.352 236.096C461.964 237.617 454.577 238.595 447.19 239.029C440.02 239.246 433.719 239.355 428.287 239.355H349.09ZM394.066 203.179H424.05C431.003 203.179 437.521 202.962 443.605 202.527C449.906 201.875 455.012 200.137 458.923 197.312C462.834 194.271 464.789 189.273 464.789 182.321C464.789 175.368 462.834 170.479 458.923 167.654C455.229 164.83 450.232 163.2 443.931 162.766C437.847 162.114 431.22 161.788 424.05 161.788H394.066V203.179ZM393.74 127.893H422.42C427.852 127.893 433.284 127.676 438.716 127.241C444.148 126.59 448.711 125.069 452.404 122.679C456.098 120.071 457.945 115.726 457.945 109.642C457.945 103.776 456.207 99.6476 452.73 97.2575C449.471 94.8675 445.126 93.4552 439.694 93.0207C434.262 92.5861 428.504 92.3689 422.42 92.3689H393.74V127.893Z" fill="white"/>
<path d="M528.011 239.355V55.8667H572.335V239.355H528.011Z" fill="white"/>
<path d="M592.08 239.355V104.428H637.708V239.355H592.08ZM614.894 89.7616C605.769 89.7616 599.576 87.4802 596.317 82.9174C593.275 78.1374 591.755 72.7055 591.755 66.6218C591.755 60.7554 593.275 55.5408 596.317 50.9781C599.576 46.4153 605.769 44.1339 614.894 44.1339C624.02 44.1339 629.995 46.4153 632.819 50.9781C635.861 55.5408 637.382 60.7554 637.382 66.6218C637.382 72.7055 635.861 78.1374 632.819 82.9174C629.995 87.4802 624.02 89.7616 614.894 89.7616Z" fill="white"/>
<path d="M653.831 239.355V104.428H693.266L700.762 129.197H701.414C701.414 129.197 701.957 128.002 703.043 125.612C704.347 123.005 706.52 120.071 709.561 116.812C712.603 113.553 716.84 110.729 722.272 108.339C727.921 105.731 735.091 104.428 743.782 104.428C753.56 104.428 761.381 106.166 767.248 109.642C773.332 113.119 777.894 117.681 780.936 123.33C784.195 128.762 786.368 134.737 787.454 141.256C788.541 147.557 789.084 153.749 789.084 159.833C789.301 165.699 789.41 170.696 789.41 174.825V239.355H745.086V174.499C745.086 169.719 744.651 165.047 743.782 160.484C743.13 155.922 741.284 152.119 738.242 149.078C735.2 145.818 729.985 144.189 722.598 144.189C715.428 144.189 710.322 145.818 707.28 149.078C704.238 152.119 702.391 155.922 701.74 160.484C701.088 165.047 700.762 169.719 700.762 174.499V239.355H653.831Z" fill="white"/>
<path d="M848.181 239.355H802.553V55.8667H848.181V239.355ZM877.839 137.671L945.629 239.029H891.853L844.596 169.61L877.839 137.671ZM847.529 208.068V158.203L889.898 103.45H944.651L847.529 208.068Z" fill="white"/>
<path d="M1005.85 242.614C1004.33 242.614 1001.07 242.397 996.071 241.962C991.291 241.745 985.751 240.876 979.45 239.355C973.366 237.617 967.391 234.901 961.524 231.207C955.658 227.514 950.769 222.516 946.858 216.215C943.165 209.697 941.318 201.332 941.318 191.12H983.035C983.035 191.337 983.035 192.424 983.035 194.379C983.252 196.335 983.904 198.507 984.99 200.897C986.294 203.288 988.358 205.46 991.182 207.416C994.224 209.154 998.678 210.023 1004.54 210.023C1009.54 210.023 1013.13 209.371 1015.3 208.068C1017.69 206.764 1019.21 205.352 1019.86 203.831C1020.51 202.31 1020.84 201.115 1020.84 200.246C1020.84 196.987 1018.99 194.379 1015.3 192.424C1011.61 190.468 1006.83 188.73 1000.96 187.209C995.093 185.471 988.792 183.624 982.057 181.669C975.539 179.496 969.346 176.78 963.48 173.521C957.613 170.045 952.833 165.59 949.14 160.159C945.446 154.727 943.599 147.774 943.599 139.3C943.599 125.395 948.705 115.291 958.917 108.99C969.346 102.689 982.383 99.5389 998.027 99.5389C1007.8 99.5389 1016.71 100.734 1024.75 103.124C1032.79 105.297 1039.74 108.664 1045.61 113.227C1051.48 117.573 1056.04 123.113 1059.3 129.849C1062.77 136.367 1064.62 143.972 1064.84 152.663H1023.77C1023.77 148.969 1023.12 145.927 1021.82 143.537C1020.51 140.93 1018.67 138.974 1016.28 137.671C1014.1 136.15 1011.61 135.063 1008.78 134.411C1006.17 133.76 1003.35 133.434 1000.31 133.434C994.007 133.434 989.879 134.52 987.923 136.693C985.968 138.648 984.99 140.712 984.99 142.885C984.99 146.796 986.837 149.947 990.531 152.337C994.442 154.509 999.33 156.465 1005.2 158.203C1011.28 159.941 1017.69 161.788 1024.43 163.744C1031.38 165.699 1037.79 168.306 1043.65 171.565C1049.74 174.607 1054.63 178.735 1058.32 183.95C1062.23 188.947 1064.19 195.466 1064.19 203.505C1064.19 211.978 1061.8 219.149 1057.02 225.015C1052.45 230.664 1045.83 235.01 1037.14 238.051C1028.44 241.093 1018.02 242.614 1005.85 242.614Z" fill="white"/>
</svg>
